<?xml version="1.0" encoding="UTF-8" standalone="no"?>
<svg
   xmlns:dc="http://purl.org/dc/elements/1.1/"
   xmlns:cc="http://creativecommons.org/ns#"
   xmlns:rdf="http://www.w3.org/1999/02/22-rdf-syntax-ns#"
   xmlns:svg="http://www.w3.org/2000/svg"
   xmlns="http://www.w3.org/2000/svg"
   xmlns:xlink="http://www.w3.org/1999/xlink"
   xmlns:sodipodi="http://sodipodi.sourceforge.net/DTD/sodipodi-0.dtd"
   xmlns:inkscape="http://www.inkscape.org/namespaces/inkscape"
   viewBox="-147 -68 691.13561 512.00298"
   id="svg4017"
   version="1.1"
   inkscape:version="0.48.4 r9939"
   width="100%"
   height="100%"
   sodipodi:docname="brewdroid_mug.svg"
   inkscape:export-filename="/home/chshrcat/AndroidStudioProjects/HomebrewersCompanion/brewdroid.png"
   inkscape:export-xdpi="90.002586"
   inkscape:export-ydpi="90.002586"
   style="enable-background:new">
  <metadata
     id="metadata4048">
    <rdf:RDF>
      <cc:Work
         rdf:about="">
        <dc:format>image/svg+xml</dc:format>
        <dc:type
           rdf:resource="http://purl.org/dc/dcmitype/StillImage" />
        <dc:title />
      </cc:Work>
    </rdf:RDF>
  </metadata>
  <defs
     id="defs4046">
    <filter
       id="filter5019"
       inkscape:label="Rear Glass"
       inkscape:menu="Bevels"
       inkscape:menu-tooltip="Same as Matte jelly but with more controls"
       color-interpolation-filters="sRGB"
       height="1"
       width="1"
       y="0"
       x="0">
      <feTurbulence
         id="feTurbulence5021"
         type="fractalNoise"
         numOctaves="3"
         baseFrequency="0.0040000000000000001"
         result="result1"
         seed="7"
         surfaceScale="5" />
      <feColorMatrix
         id="feColorMatrix5047"
         values="1 0 0 0 0 0 1 0 0 0 0 0 1 0 0 0 0 0 0.3 0.7 "
         result="result4" />
      <feComposite
         in2="result4"
         id="feComposite5023"
         operator="in"
         result="result2"
         in="SourceGraphic" />
      <feColorMatrix
         id="feColorMatrix5025"
         result="fbSourceGraphic"
         values="1 0 0 0 0 0 1 0 0 0 0 0 1 0 0 0 0 0 3 -1 "
         in="result2" />
      <feColorMatrix
         result="fbSourceGraphicAlpha"
         in="fbSourceGraphic"
         values="0 0 0 -1 0 0 0 0 -1 0 0 0 0 -1 0 0 0 0 1 0"
         id="feColorMatrix5049" />
      <feBlend
         in2="fbSourceGraphicAlpha"
         id="feBlend5051"
         result="result3"
         mode="normal"
         in="fbSourceGraphic" />
      <feComposite
         in2="result3"
         id="feComposite5053"
         result="result4"
         operator="arithmetic"
         k2="1"
         k1="0"
         k3="0"
         k4="0" />
      <feColorMatrix
         id="feColorMatrix5055"
         in="result4"
         result="result0"
         values="1 0 0 0 0 0 1 0 0 0 0 0 1 0 0 0 0 0 0.85 0 " />
      <feGaussianBlur
         id="feGaussianBlur5057"
         stdDeviation="7"
         in="fbSourceGraphicAlpha" />
      <feSpecularLighting
         id="feSpecularLighting5059"
         result="result1"
         specularExponent="2"
         specularConstant="1"
         surfaceScale="-5"
         lighting-color="#bbbbbb"
         seed="7">
        <feDistantLight
           id="feDistantLight5061"
           azimuth="225"
           elevation="60" />
      </feSpecularLighting>
      <feComposite
         in2="result0"
         id="feComposite5063"
         k1="0.5"
         k2="1"
         operator="arithmetic"
         k3="0.5"
         result="result5"
         k4="0" />
      <feComposite
         in2="result0"
         id="feComposite5065"
         result="result2"
         operator="atop" />
      <feComposite
         in2="fbSourceGraphic"
         id="feComposite5067"
         operator="in" />
    </filter>
    <filter
       x="0"
       y="0"
       width="1"
       height="1"
       color-interpolation-filters="sRGB"
       inkscape:menu-tooltip="Same as Matte jelly but with more controls"
       inkscape:menu="Bevels"
       inkscape:label="Front Glass"
       id="filter6678">
      <feTurbulence
         surfaceScale="5"
         seed="5"
         result="result1"
         baseFrequency="0.0040000000000000001"
         numOctaves="3"
         type="fractalNoise"
         id="feTurbulence6680" />
      <feColorMatrix
         result="result4"
         values="1 0 0 0 0 0 1 0 0 0 0 0 1 0 0 0 0 0 0.3 0.7 "
         id="feColorMatrix6682" />
      <feComposite
         in="SourceGraphic"
         result="result2"
         operator="in"
         id="feComposite6684"
         in2="result4" />
      <feColorMatrix
         in="result2"
         values="1 0 0 0 0 0 1 0 0 0 0 0 1 0 0 0 0 0 3 -1 "
         result="fbSourceGraphic"
         id="feColorMatrix6686" />
      <feColorMatrix
         id="feColorMatrix6688"
         values="0 0 0 -1 0 0 0 0 -1 0 0 0 0 -1 0 0 0 0 1 0"
         in="fbSourceGraphic"
         result="fbSourceGraphicAlpha" />
      <feBlend
         in="fbSourceGraphic"
         mode="normal"
         result="result3"
         id="feBlend6690"
         in2="fbSourceGraphicAlpha" />
      <feComposite
         k2="1"
         operator="arithmetic"
         result="result4"
         id="feComposite6692"
         in2="result3"
         k1="0"
         k3="0"
         k4="0" />
      <feColorMatrix
         values="1 0 0 0 0 0 1 0 0 0 0 0 1 0 0 0 0 0 0.85 0 "
         result="result0"
         in="result4"
         id="feColorMatrix6694" />
      <feGaussianBlur
         in="fbSourceGraphicAlpha"
         stdDeviation="7"
         id="feGaussianBlur6696" />
      <feSpecularLighting
         lighting-color="#bbbbbb"
         surfaceScale="5"
         specularConstant="1"
         specularExponent="2"
         result="result1"
         id="feSpecularLighting6698">
        <feDistantLight
           elevation="60"
           azimuth="225"
           id="feDistantLight6700" />
      </feSpecularLighting>
      <feComposite
         result="result5"
         k3="0.5"
         operator="arithmetic"
         k2="1"
         k1="0.5"
         id="feComposite6702"
         in2="result0"
         k4="0" />
      <feComposite
         operator="atop"
         result="result2"
         id="feComposite6704"
         in2="result0" />
      <feComposite
         operator="in"
         id="feComposite6706"
         in2="fbSourceGraphic" />
    </filter>
    <filter
       id="filter6710"
       inkscape:label="Glow"
       color-interpolation-filters="sRGB">
      <feGaussianBlur
         stdDeviation="2"
         id="feGaussianBlur6712"
         result="result1"
         in="SourceAlpha" />
      <feComposite
         id="feComposite6714"
         in2="result1"
         result="result2"
         operator="out"
         in="SourceGraphic" />
      <feComposite
         id="feComposite6716"
         in2="SourceGraphic"
         operator="in" />
    </filter>
    <filter
       id="filter4868"
       inkscape:label="filter3"
       color-interpolation-filters="sRGB">
      <feGaussianBlur
         stdDeviation="19.882489539748953"
         id="feGaussianBlur4947"
         in="SourceAlpha"
         result="result1" />
      <feComposite
         id="feComposite4949"
         in2="result1"
         operator="out"
         in="SourceGraphic" />
    </filter>
    <filter
       color-interpolation-filters="sRGB"
       inkscape:label="Glow"
       id="filter4995"
       x="-0.1">
      <feGaussianBlur
         in="SourceAlpha"
         result="result1"
         id="feGaussianBlur4997"
         stdDeviation="6" />
      <feComposite
         in="SourceGraphic"
         operator="out"
         result="result2"
         in2="result1"
         id="feComposite4999" />
      <feComposite
         operator="in"
         in2="SourceGraphic"
         id="feComposite5001" />
    </filter>
    <clipPath
       clipPathUnits="userSpaceOnUse"
       id="clipPath4253">
      <use
         height="511.98532"
         width="433"
         transform="translate(248.1951,-967.22666)"
         id="use4255"
         xlink:href="#path5149"
         y="0"
         x="0" />
    </clipPath>
  </defs>
  <sodipodi:namedview
     pagecolor="#000000"
     bordercolor="#666666"
     borderopacity="1"
     objecttolerance="10"
     gridtolerance="10"
     guidetolerance="10"
     inkscape:pageopacity="0"
     inkscape:pageshadow="2"
     inkscape:window-width="1920"
     inkscape:window-height="1027"
     id="namedview4044"
     showgrid="false"
     inkscape:zoom="1"
     inkscape:cx="211.42817"
     inkscape:cy="352.16601"
     inkscape:window-x="-2"
     inkscape:window-y="-3"
     inkscape:window-maximized="1"
     inkscape:current-layer="layer3"
     fit-margin-top="0"
     fit-margin-left="0"
     fit-margin-right="0"
     fit-margin-bottom="0" />
  <g
     inkscape:groupmode="layer"
     id="layer3"
     inkscape:label="Base"
     style="display:inline"
     transform="translate(288.48508,419.01344)">
    <path
       d="m 83.96875,968.25 c -0.65534,0.0573 -1.36546,0.27327 -2,0.625 -2.25616,1.25061 -2.96936,3.83759 -1.71875,6.09375 l 22.21875,40.15625 c -42.733898,22.2474 -71.62994,64.4962 -71.6875,113 l 281.3125,0 c -0.0576,-48.5038 -28.95361,-90.7526 -71.6875,-113 L 262.625,974.96875 c 1.25062,-2.25616 0.53741,-4.84314 -1.71875,-6.09375 -0.84606,-0.46898 -1.77151,-0.69184 -2.625,-0.625 -1.42248,0.1114 -2.68712,0.9649 -3.46875,2.375 l -22.5,40.5625 c -18.42304,-8.1779 -39.06518,-12.75 -60.875,-12.75 -21.80982,0 -42.42071,4.5721 -60.84375,12.75 L 88.0625,970.625 c -0.78163,-1.4101 -2.04627,-2.26361 -3.46875,-2.375 -0.21337,-0.0167 -0.40656,-0.0191 -0.625,0 z m 22.5625,84.9375 c 6.42198,0 11.71875,5.2969 11.71875,11.7187 0,6.422 -5.29677,11.75 -11.71875,11.75 -6.42199,0 -11.75,-5.328 -11.75,-11.75 0,-6.4218 5.32801,-11.7187 11.75,-11.7187 z m 129.84375,0 c 6.42198,0 11.71875,5.2969 11.71875,11.7187 0,6.422 -5.29677,11.75 -11.71875,11.75 -6.42199,0 -11.75,-5.328 -11.75,-11.75 0,-6.4218 5.32801,-11.7187 11.75,-11.7187 z M -12.5,1133.8438 c -17.565218,0 -31.53125,13.966 -31.53125,31.5312 l 0,131.4062 c 0,17.5652 13.966032,31.5313 31.53125,31.5313 17.565219,0 31.53125,-13.9661 31.53125,-31.5313 l 0,-131.4062 c 0,-17.5652 -13.966031,-31.5312 -31.53125,-31.5312 z m 368.8125,0 a 31.546899,31.546899 0 0 0 0,63.0937 c 19.2344,0 34.15625,14.9219 34.15625,34.1563 0,19.2343 -14.92185,34.1562 -34.15625,34.1562 a 31.545155,31.545155 0 1 0 0,63.0625 c 53.32753,-10e-5 97.25,-43.8913 97.25,-97.2187 0,-53.3275 -43.92247,-97.2501 -97.25,-97.25 z m -325.53125,5.4062 0,203.875 c 0,18.8391 15.160922,34.0313 34,34.0312 l 22.5625,0 0,69.5313 c 0,17.5652 13.96603,31.5625 31.53125,31.5625 17.56521,0 31.5625,-13.9973 31.5625,-31.5625 l 0,-69.5313 42.03125,0 0,69.5313 c 0,17.5652 13.96603,31.5625 31.53125,31.5625 17.56521,0 31.53125,-13.9973 31.53125,-31.5625 l 0,-69.5313 22.5625,0 c 18.83908,0 34,-15.1921 34,-34.0312 l 0,-203.875 -281.3125,0 z"
       transform="translate(-447.12793,-487.02628)"
       id="path5149"
       inkscape:connector-curvature="0" />
    <use
       x="0"
       y="0"
       xlink:href="#path5149"
       id="use3875"
       transform="translate(248.1951,-967.22665)"
       width="433"
       height="511.98532"
       style="fill:#e8f5f8;fill-opacity:0.50196078;filter:url(#filter5019)"
       inkscape:export-filename="/home/chshrcat/AndroidStudioProjects/HomebrewersCompanion/brewdroid.png"
       inkscape:export-xdpi="90.002586"
       inkscape:export-ydpi="90.002586" />
    <path
       style="fill:#800000;fill-opacity:0.8627451"
       d="m 268,-272.34376 c -2.62878,-0.041 -4.25956,-0.12662 -7.06522,-0.15625 -12.32941,-0.13022 -26.24213,-0.16023 -40.45516,-0.15625 -28.42608,0.008 -58.12518,0.15739 -79.11005,-0.125 -10.49244,-0.14119 -19.50684,-0.0121 -27.68343,0.3125 -8.17658,0.32459 -15.488965,0.8239 -22.554346,1.40625 -7.065379,0.58235 -13.900977,1.24289 -21.059781,1.875 -7.158805,0.63211 -14.640957,1.24489 -23.097826,1.71875 -8.45687,0.47386 -17.001555,0.63974 -25.645382,0.5625 -8.643826,-0.0772 -17.3898369,-0.38559 -26.2567935,-0.90625 -8.8669565,-0.52066 -17.8778045,-1.23735 -27.0040765,-2.09375 -9.126261,-0.8564 -18.363565,-1.85305 -27.785326,-2.9375 -9.42175,-1.08445 -19.350217,-1.92678 -29.517663,-2.5 -10.167446,-0.57322 -20.598716,-0.88356 -31.046196,-0.90625 -10.44748,-0.0227 -20.92022,0.24538 -31.18206,0.8125 -5.13093,0.28356 -10.18622,0.62412 -15.18343,1.0625 -4.99721,0.43839 -9.93656,0.96438 -14.74185,1.5625 -9.61055,1.19624 -18.99051,2.12592 -28.26087,2.8125 -9.27036,0.68659 -18.42124,1.11418 -27.51358,1.375 -9.09235,0.26082 -18.13135,0.33105 -27.20788,0.25 -5.83736,-0.0521 -11.74315,-0.24123 -17.62908,-0.40625 l 0,307.78125 550,0 0,-311.34375 z"
       id="path4516"
       inkscape:connector-curvature="0"
       clip-path="url(#clipPath4253)"
       inkscape:export-filename="/home/chshrcat/AndroidStudioProjects/HomebrewersCompanion/brewdroid.png"
       inkscape:export-xdpi="90.002586"
       inkscape:export-ydpi="90.002586" />
    <use
       x="0"
       y="0"
       xlink:href="#path5149"
       id="use4428"
       transform="translate(248.1951,-967.22665)"
       width="433"
       height="511.98532"
       style="fill:none;filter:url(#filter6678)"
       inkscape:export-filename="/home/chshrcat/AndroidStudioProjects/HomebrewersCompanion/brewdroid.png"
       inkscape:export-xdpi="90.002586"
       inkscape:export-ydpi="90.002586" />
    <use
       x="0"
       y="0"
       xlink:href="#path5149"
       inkscape:transform-center-x="22.627417"
       inkscape:transform-center-y="31.112698"
       id="use3828"
       transform="translate(248.1951,-967.22665)"
       width="636.11682"
       height="512.0166"
       style="fill:#e8f5f8;fill-opacity:0.50196078;filter:url(#filter6678)" />
    <use
       x="0"
       y="0"
       xlink:href="#path5149"
       id="use4430"
       transform="translate(248.1951,-967.22665)"
       width="433"
       height="511.98532"
       style="fill:#e8f5f8;fill-opacity:1;filter:url(#filter6710)"
       clip-path="none"
       mask="none"
       inkscape:export-filename="/home/chshrcat/AndroidStudioProjects/HomebrewersCompanion/brewdroid.png"
       inkscape:export-xdpi="90.002586"
       inkscape:export-ydpi="90.002586" />
    <use
       inkscape:export-ydpi="90.002586"
       inkscape:export-xdpi="90.002586"
       inkscape:export-filename="/home/chshrcat/AndroidStudioProjects/HomebrewersCompanion/brewdroid.png"
       style="fill:#e8f5f8;fill-opacity:0.50196078;filter:url(#filter5019)"
       height="511.98532"
       width="433"
       transform="matrix(0.27059,0,0,0.27059,-299.5864,-430.22261)"
       id="use4289"
       xlink:href="#path5149"
       y="0"
       x="0" />
    <path
       inkscape:export-ydpi="90.002586"
       inkscape:export-xdpi="90.002586"
       inkscape:export-filename="/home/chshrcat/AndroidStudioProjects/HomebrewersCompanion/brewdroid.png"
       clip-path="url(#clipPath4253)"
       inkscape:connector-curvature="0"
       id="path4291"
       d="m 268,-272.34376 c -2.62878,-0.041 -4.25956,-0.12662 -7.06522,-0.15625 -12.32941,-0.13022 -26.24213,-0.16023 -40.45516,-0.15625 -28.42608,0.008 -58.12518,0.15739 -79.11005,-0.125 -10.49244,-0.14119 -19.50684,-0.0121 -27.68343,0.3125 -8.17658,0.32459 -15.488965,0.8239 -22.554346,1.40625 -7.065379,0.58235 -13.900977,1.24289 -21.059781,1.875 -7.158805,0.63211 -14.640957,1.24489 -23.097826,1.71875 -8.45687,0.47386 -17.001555,0.63974 -25.645382,0.5625 -8.643826,-0.0772 -17.3898369,-0.38559 -26.2567935,-0.90625 -8.8669565,-0.52066 -17.8778045,-1.23735 -27.0040765,-2.09375 -9.126261,-0.8564 -18.363565,-1.85305 -27.785326,-2.9375 -9.42175,-1.08445 -19.350217,-1.92678 -29.517663,-2.5 -10.167446,-0.57322 -20.598716,-0.88356 -31.046196,-0.90625 -10.44748,-0.0227 -20.92022,0.24538 -31.18206,0.8125 -5.13093,0.28356 -10.18622,0.62412 -15.18343,1.0625 -4.99721,0.43839 -9.93656,0.96438 -14.74185,1.5625 -9.61055,1.19624 -18.99051,2.12592 -28.26087,2.8125 -9.27036,0.68659 -18.42124,1.11418 -27.51358,1.375 -9.09235,0.26082 -18.13135,0.33105 -27.20788,0.25 -5.83736,-0.0521 -11.74315,-0.24123 -17.62908,-0.40625 l 0,307.78125 550,0 0,-311.34375 z"
       style="fill:#800000;fill-opacity:0.8627451"
       transform="matrix(0.27059,0,0,0.27059,-366.74551,-168.50075)" />
    <use
       inkscape:export-ydpi="90.002586"
       inkscape:export-xdpi="90.002586"
       inkscape:export-filename="/home/chshrcat/AndroidStudioProjects/HomebrewersCompanion/brewdroid.png"
       style="fill:none;filter:url(#filter6678)"
       height="511.98532"
       width="433"
       transform="matrix(0.27059,0,0,0.27059,-299.5864,-430.22261)"
       id="use4295"
       xlink:href="#path5149"
       y="0"
       x="0" />
    <use
       style="fill:#e8f5f8;fill-opacity:0.50196078;filter:url(#filter6678)"
       height="512.0166"
       width="636.11682"
       transform="matrix(0.27059,0,0,0.27059,-299.5864,-430.22261)"
       id="use4297"
       inkscape:transform-center-y="8.418783"
       inkscape:transform-center-x="6.1227539"
       xlink:href="#path5149"
       y="0"
       x="0" />
    <use
       inkscape:export-ydpi="90.002586"
       inkscape:export-xdpi="90.002586"
       inkscape:export-filename="/home/chshrcat/AndroidStudioProjects/HomebrewersCompanion/brewdroid.png"
       mask="none"
       clip-path="none"
       style="fill:#e8f5f8;fill-opacity:1;filter:url(#filter4995)"
       height="511.98532"
       width="433"
       transform="matrix(0.27059,0,0,0.27059,-299.5864,-430.22261)"
       id="use4299"
       xlink:href="#path5149"
       y="0"
       x="0" />
    <path
       style="fill:none;stroke:#000000;stroke-width:11.08670235;stroke-miterlimit:4;stroke-opacity:1;stroke-dasharray:none"
       transform="matrix(0.27060602,0,0,0.27058288,-299.58166,-430.21624)"
       d="m -363.625,475.71875 c -1.51155,0.13216 -2.89333,0.54656 -4.21875,1.28125 -4.65324,2.57933 -6.42738,9.02039 -3.875,13.625 l 19.5625,35.34375 c -41.63757,23.73667 -69.66087,66.34907 -69.71875,115.125 a 5.5329667,5.5329667 0 0 0 5.53125,5.53125 l 281.3125,0 a 5.5329667,5.5329667 0 0 0 5.53125,-5.53125 c -0.0579,-48.77593 -28.08119,-91.38833 -69.71875,-115.125 l 19.5625,-35.34375 c 2.5524,-4.60462 0.77823,-11.04567 -3.875,-13.625 -1.69225,-0.93803 -3.6319,-1.44713 -5.75,-1.28125 -3.36082,0.2632 -6.32556,2.39223 -7.875,5.1875 l -20.15625,36.375 c -17.91783,-7.24519 -37.60896,-11.40625 -58.375,-11.40625 -20.76604,0 -40.43153,4.16166 -58.34375,11.40625 l -20.1875,-36.375 c -1.54944,-2.79526 -4.51412,-4.92432 -7.875,-5.1875 -0.43125,-0.0337 -0.99077,-0.0473 -1.53125,0 z m 23.03125,95.96875 c 3.37983,0 6.1875,2.80783 6.1875,6.1875 0,3.37997 -2.8255,6.21875 -6.1875,6.21875 -3.36201,0 -6.21875,-2.85673 -6.21875,-6.21875 0,-3.36173 2.8389,-6.1875 6.21875,-6.1875 z m 129.84375,0 c 3.37983,0 6.1875,2.80783 6.1875,6.1875 0,3.37997 -2.8255,6.21875 -6.1875,6.21875 -3.36201,0 -6.21875,-2.85673 -6.21875,-6.21875 0,-3.36173 2.8389,-6.1875 6.21875,-6.1875 z m -248.875,69.59375 c -20.49776,0 -37.0625,16.56476 -37.0625,37.0625 l 0,131.40625 c 0,20.49774 16.56474,37.0625 37.0625,37.0625 20.49776,0 37.0625,-16.56476 37.0625,-37.0625 l 0,-131.40625 c 0,-20.49774 -16.56474,-37.0625 -37.0625,-37.0625 z m 368.8125,0 c -1.701306,0.002 -5.550492,0.38504 -7.21875,0.71875 -1.668258,0.33371 -5.39755,1.47248 -6.96875,2.125 -1.5712,0.65252 -4.99239,2.45996 -6.40625,3.40625 -1.41386,0.94629 -4.39149,3.42125 -5.59375,4.625 -1.20226,1.20375 -3.68046,4.20998 -4.625,5.625 -0.94454,1.41502 -2.75567,4.83425 -3.40625,6.40625 -0.65058,1.572 -1.79335,5.26883 -2.125,6.9375 -0.33165,1.66867 -0.6875,5.54869 -0.6875,7.25 0,1.70131 0.35585,5.55008 0.6875,7.21875 0.33165,1.66867 1.47442,5.3655 2.125,6.9375 0.65058,1.572 2.46171,4.99123 3.40625,6.40625 0.94454,1.41502 3.42274,4.42125 4.625,5.625 1.20226,1.20375 4.17989,3.67871 5.59375,4.625 1.41386,0.94629 4.83505,2.75373 6.40625,3.40625 1.5712,0.65252 5.300492,1.79129 6.96875,2.125 1.668258,0.33371 5.517444,0.71665 7.21875,0.71875 16.373074,0 28.625,12.25193 28.625,28.625 0,16.31958 -12.175953,28.54547 -28.46875,28.625 -0.05329,2.6e-4 -0.10287,0 -0.15625,0 -1.78665,-0.037 -5.545185,0.24334 -7.21875,0.53125 -1.709598,0.29411 -5.50795,1.34076 -7.125,1.96875 -1.61705,0.62799 -5.165,2.40693 -6.625,3.34375 -1.46,0.93682 -4.53655,3.41672 -5.78125,4.625 -1.2447,1.20828 -3.80149,4.22471 -4.78125,5.65625 -0.97976,1.43154 -2.88678,4.90231 -3.5625,6.5 -0.67572,1.59769 -1.84276,5.36239 -2.1875,7.0625 -0.34474,1.70011 -0.71875,5.64029 -0.71875,7.375 0,1.73471 0.37401,5.67489 0.71875,7.375 0.34474,1.70011 1.51178,5.46481 2.1875,7.0625 0.67572,1.59769 2.58274,5.06846 3.5625,6.5 0.97976,1.43154 3.53655,4.44797 4.78125,5.65625 1.2447,1.20828 4.32125,3.68818 5.78125,4.625 1.46,0.93682 5.00795,2.71576 6.625,3.34375 1.61705,0.62799 5.415402,1.67464 7.125,1.96875 1.673565,0.28791 5.4321,0.56821 7.21875,0.53125 0.03847,-8e-4 0.119703,0.001 0.15625,0 56.291989,-0.0866 102.625,-46.4374 102.625,-102.75 0,-56.3653 -46.415909,-102.78136 -102.78125,-102.78125 z m -325.53125,5.40625 a 5.5329667,5.5329667 0 0 0 -5.53125,5.53125 l 0,203.875 c 0,21.80727 17.71785,39.56262 39.53125,39.5625 l 17.03125,0 0,64 c 0,20.49774 16.55818,37.09375 37.0625,37.09375 20.50431,0 37.09375,-16.58945 37.09375,-37.09375 l 0,-64 30.96875,0 0,64 c 0,20.49774 16.55818,37.09375 37.0625,37.09375 20.50431,0 37.0625,-16.59601 37.0625,-37.09375 l 0,-64 17.03125,0 c 21.81337,0 39.53125,-17.75523 39.53125,-39.5625 l 0,-203.875 a 5.5329667,5.5329667 0 0 0 -5.53125,-5.53125 l -281.3125,0 z"
       inkscape:href="#path5149"
       id="path4293"
       xlink:href="#path5149"
       inkscape:original="M -363.15625 481.21875 C -363.81159 481.27605 -364.52171 481.49202 -365.15625 481.84375 C -367.41241 483.09436 -368.12561 485.68134 -366.875 487.9375 L -344.65625 528.09375 C -387.39015 550.34115 -416.28619 592.58995 -416.34375 641.09375 L -135.03125 641.09375 C -135.08885 592.58995 -163.98486 550.34115 -206.71875 528.09375 L -184.5 487.9375 C -183.24938 485.68134 -183.96259 483.09436 -186.21875 481.84375 C -187.06481 481.37477 -187.99026 481.15191 -188.84375 481.21875 C -190.26623 481.33015 -191.53087 482.18365 -192.3125 483.59375 L -214.8125 524.15625 C -233.23554 515.97835 -253.87768 511.40625 -275.6875 511.40625 C -297.49732 511.40625 -318.10821 515.97835 -336.53125 524.15625 L -359.0625 483.59375 C -359.84413 482.18365 -361.10877 481.33014 -362.53125 481.21875 C -362.74462 481.20205 -362.93781 481.19965 -363.15625 481.21875 z M -340.59375 566.15625 C -334.17177 566.15625 -328.875 571.4532 -328.875 577.875 C -328.875 584.297 -334.17177 589.625 -340.59375 589.625 C -347.01574 589.625 -352.34375 584.297 -352.34375 577.875 C -352.34375 571.4532 -347.01574 566.15625 -340.59375 566.15625 z M -210.75 566.15625 C -204.32802 566.15625 -199.03125 571.4532 -199.03125 577.875 C -199.03125 584.297 -204.32802 589.625 -210.75 589.625 C -217.17199 589.625 -222.5 584.297 -222.5 577.875 C -222.5 571.4532 -217.17199 566.15625 -210.75 566.15625 z M -459.625 646.8125 C -477.19022 646.8125 -491.15625 660.77855 -491.15625 678.34375 L -491.15625 809.75 C -491.15625 827.3152 -477.19022 841.28125 -459.625 841.28125 C -442.05978 841.28125 -428.09375 827.3152 -428.09375 809.75 L -428.09375 678.34375 C -428.09375 660.77855 -442.05978 646.8125 -459.625 646.8125 z M -90.8125 646.8125 A 31.546899 31.546899 0 0 0 -90.8125 709.90625 C -71.5781 709.90625 -56.65625 724.8281 -56.65625 744.0625 C -56.65625 763.2968 -71.5781 778.21875 -90.8125 778.21875 A 31.545155 31.545155 0 1 0 -90.8125 841.28125 C -37.48497 841.28115 6.4375 797.3899 6.4375 744.0625 C 6.4375 690.735 -37.48497 646.8124 -90.8125 646.8125 z M -416.34375 652.21875 L -416.34375 856.09375 C -416.34375 874.93285 -401.18283 890.1251 -382.34375 890.125 L -359.78125 890.125 L -359.78125 959.65625 C -359.78125 977.22145 -345.81522 991.21875 -328.25 991.21875 C -310.68479 991.21875 -296.6875 977.22145 -296.6875 959.65625 L -296.6875 890.125 L -254.65625 890.125 L -254.65625 959.65625 C -254.65625 977.22145 -240.69022 991.21875 -223.125 991.21875 C -205.55979 991.21875 -191.59375 977.22145 -191.59375 959.65625 L -191.59375 890.125 L -169.03125 890.125 C -150.19217 890.125 -135.03125 874.93285 -135.03125 856.09375 L -135.03125 652.21875 L -416.34375 652.21875 z "
       inkscape:radius="5.5324135"
       sodipodi:type="inkscape:offset" />
    <path
       sodipodi:type="inkscape:offset"
       inkscape:radius="0.49900201"
       inkscape:original="M -363.15625 481.21875 C -363.81159 481.27605 -364.52171 481.49202 -365.15625 481.84375 C -367.41241 483.09436 -368.12561 485.68134 -366.875 487.9375 L -344.65625 528.09375 C -387.39015 550.34115 -416.28619 592.58995 -416.34375 641.09375 L -135.03125 641.09375 C -135.08885 592.58995 -163.98486 550.34115 -206.71875 528.09375 L -184.5 487.9375 C -183.24938 485.68134 -183.96259 483.09436 -186.21875 481.84375 C -187.06481 481.37477 -187.99026 481.15191 -188.84375 481.21875 C -190.26623 481.33015 -191.53087 482.18365 -192.3125 483.59375 L -214.8125 524.15625 C -233.23554 515.97835 -253.87768 511.40625 -275.6875 511.40625 C -297.49732 511.40625 -318.10821 515.97835 -336.53125 524.15625 L -359.0625 483.59375 C -359.84413 482.18365 -361.10877 481.33014 -362.53125 481.21875 C -362.74462 481.20205 -362.93781 481.19965 -363.15625 481.21875 z M -340.59375 566.15625 C -334.17177 566.15625 -328.875 571.4532 -328.875 577.875 C -328.875 584.297 -334.17177 589.625 -340.59375 589.625 C -347.01574 589.625 -352.34375 584.297 -352.34375 577.875 C -352.34375 571.4532 -347.01574 566.15625 -340.59375 566.15625 z M -210.75 566.15625 C -204.32802 566.15625 -199.03125 571.4532 -199.03125 577.875 C -199.03125 584.297 -204.32802 589.625 -210.75 589.625 C -217.17199 589.625 -222.5 584.297 -222.5 577.875 C -222.5 571.4532 -217.17199 566.15625 -210.75 566.15625 z M -459.625 646.8125 C -477.19022 646.8125 -491.15625 660.77855 -491.15625 678.34375 L -491.15625 809.75 C -491.15625 827.3152 -477.19022 841.28125 -459.625 841.28125 C -442.05978 841.28125 -428.09375 827.3152 -428.09375 809.75 L -428.09375 678.34375 C -428.09375 660.77855 -442.05978 646.8125 -459.625 646.8125 z M -90.8125 646.8125 A 31.546899 31.546899 0 0 0 -90.8125 709.90625 C -71.5781 709.90625 -56.65625 724.8281 -56.65625 744.0625 C -56.65625 763.2968 -71.5781 778.21875 -90.8125 778.21875 A 31.545155 31.545155 0 1 0 -90.8125 841.28125 C -37.48497 841.28115 6.4375 797.3899 6.4375 744.0625 C 6.4375 690.735 -37.48497 646.8124 -90.8125 646.8125 z M -416.34375 652.21875 L -416.34375 856.09375 C -416.34375 874.93285 -401.18283 890.1251 -382.34375 890.125 L -359.78125 890.125 L -359.78125 959.65625 C -359.78125 977.22145 -345.81522 991.21875 -328.25 991.21875 C -310.68479 991.21875 -296.6875 977.22145 -296.6875 959.65625 L -296.6875 890.125 L -254.65625 890.125 L -254.65625 959.65625 C -254.65625 977.22145 -240.69022 991.21875 -223.125 991.21875 C -205.55979 991.21875 -191.59375 977.22145 -191.59375 959.65625 L -191.59375 890.125 L -169.03125 890.125 C -150.19217 890.125 -135.03125 874.93285 -135.03125 856.09375 L -135.03125 652.21875 L -416.34375 652.21875 z "
       xlink:href="#path5149"
       id="path3818"
       inkscape:href="#path5149"
       d="m -363.1875,480.71875 c -0.73257,0.0641 -1.5219,0.30123 -2.21875,0.6875 -2.47237,1.37046 -3.27427,4.31327 -1.90625,6.78125 l 21.96875,39.71875 c -42.62211,22.38931 -71.44242,64.66502 -71.5,113.1875 a 0.49905191,0.49905191 0 0 0 0.5,0.5 l 281.3125,0 a 0.49905191,0.49905191 0 0 0 0.5,-0.5 c -0.0576,-48.52248 -28.8779,-90.79819 -71.5,-113.1875 l 21.96875,-39.71875 c 1.36804,-2.46798 0.56612,-5.41079 -1.90625,-6.78125 -0.92238,-0.51129 -1.9387,-0.76327 -2.90625,-0.6875 -1.59731,0.12509 -3.02412,1.08996 -3.875,2.625 l -22.28125,40.1875 c -18.38571,-8.09591 -38.93311,-12.625 -60.65625,-12.625 -21.72314,0 -42.23991,4.52917 -60.625,12.625 l -22.3125,-40.1875 c -0.85088,-1.53504 -2.27768,-2.49992 -3.875,-2.625 -0.23302,-0.0182 -0.44001,-0.0216 -0.6875,0 z m 22.59375,85.9375 c 6.14759,0 11.21875,5.07134 11.21875,11.21875 0,6.14762 -5.07277,11.25 -11.21875,11.25 -6.14599,0 -11.25,-5.104 -11.25,-11.25 0,-6.14579 5.1024,-11.21875 11.25,-11.21875 z m 129.84375,0 c 6.14759,0 11.21875,5.07134 11.21875,11.21875 0,6.14762 -5.07277,11.25 -11.21875,11.25 -6.14599,0 -11.25,-5.104 -11.25,-11.25 0,-6.14579 5.1024,-11.21875 11.25,-11.21875 z m -248.875,79.65625 c -17.82972,0 -32.03125,14.20155 -32.03125,32.03125 l 0,131.40625 c 0,17.8297 14.20153,32.03125 32.03125,32.03125 17.82972,0 32.03125,-14.20155 32.03125,-32.03125 l 0,-131.40625 c 0,-17.8297 -14.20153,-32.03125 -32.03125,-32.03125 z m 368.8125,0 c -0.507621,6.3e-4 -1.05552,0.006 -1.5625,0.0312 -0.50698,0.0255 -1.057381,0.0747 -1.5625,0.125 -0.505119,0.0503 -1.060457,0.11246 -1.5625,0.1875 -0.502043,0.075 -1.06474,0.18168 -1.5625,0.28125 -0.49776,0.0996 -1.03897,0.2199 -1.53125,0.34375 -0.49228,0.12385 -1.014385,0.25841 -1.5,0.40625 -0.48562,0.14784 -1.02222,0.32853 -1.5,0.5 -0.47778,0.17147 -0.99995,0.36781 -1.46875,0.5625 -0.4688,0.19469 -0.97881,0.43881 -1.4375,0.65625 -0.45869,0.21744 -0.95877,0.47908 -1.40625,0.71875 -0.44748,0.23967 -0.93981,0.48868 -1.375,0.75 -0.43519,0.26132 -0.89065,0.56141 -1.3125,0.84375 -0.42185,0.28234 -0.87375,0.60356 -1.28125,0.90625 -0.4075,0.30269 -0.85783,0.64645 -1.25,0.96875 -0.39217,0.3223 -0.8116,0.69011 -1.1875,1.03125 -0.3759,0.34114 -0.76628,0.73459 -1.125,1.09375 -0.35872,0.35916 -0.75307,0.74868 -1.09375,1.125 -0.34068,0.37632 -0.70943,0.79493 -1.03125,1.1875 -0.32182,0.39257 -0.66656,0.84212 -0.96875,1.25 -0.30219,0.40788 -0.62443,0.85905 -0.90625,1.28125 -0.28182,0.4222 -0.58297,0.90824 -0.84375,1.34375 -0.26078,0.43551 -0.51088,0.89598 -0.75,1.34375 -0.23912,0.44777 -0.50187,0.94729 -0.71875,1.40625 -0.21688,0.45896 -0.43089,0.96846 -0.625,1.4375 -0.19411,0.46904 -0.39162,0.99076 -0.5625,1.46875 -0.17088,0.47799 -0.35276,1.0142 -0.5,1.5 -0.14724,0.4858 -0.31425,1.03882 -0.4375,1.53125 -0.12325,0.49243 -0.24479,1.03337 -0.34375,1.53125 -0.099,0.49788 -0.17557,1.02911 -0.25,1.53125 -0.0744,0.50214 -0.13778,1.05732 -0.1875,1.5625 -0.0497,0.50518 -0.10011,1.05549 -0.125,1.5625 -0.0249,0.50701 -0.0312,1.08613 -0.0312,1.59375 0,0.50762 0.006,1.05549 0.0312,1.5625 0.0249,0.50701 0.0753,1.05732 0.125,1.5625 0.0497,0.50518 0.11307,1.06036 0.1875,1.5625 0.0744,0.50214 0.15104,1.03337 0.25,1.53125 0.099,0.49788 0.2205,1.03882 0.34375,1.53125 0.12325,0.49243 0.29026,1.04545 0.4375,1.53125 0.14724,0.4858 0.32912,1.02201 0.5,1.5 0.17088,0.47799 0.36839,0.99971 0.5625,1.46875 0.19411,0.46904 0.40812,0.97854 0.625,1.4375 0.21688,0.45896 0.47963,0.95848 0.71875,1.40625 0.23912,0.44777 0.48922,0.90824 0.75,1.34375 0.26078,0.43551 0.56193,0.92155 0.84375,1.34375 0.28182,0.4222 0.60406,0.87337 0.90625,1.28125 0.30219,0.40788 0.64693,0.85743 0.96875,1.25 0.32182,0.39257 0.69057,0.81118 1.03125,1.1875 0.34068,0.37632 0.73503,0.76584 1.09375,1.125 0.35872,0.35916 0.7491,0.75261 1.125,1.09375 0.3759,0.34114 0.79533,0.70895 1.1875,1.03125 0.39217,0.3223 0.8425,0.66606 1.25,0.96875 0.4075,0.30269 0.8594,0.62391 1.28125,0.90625 0.42185,0.28234 0.87731,0.58243 1.3125,0.84375 0.43519,0.26132 0.92752,0.51033 1.375,0.75 0.44748,0.23967 0.94756,0.50131 1.40625,0.71875 0.45869,0.21744 0.9687,0.46156 1.4375,0.65625 0.4688,0.19469 0.99097,0.39103 1.46875,0.5625 0.47778,0.17147 1.01438,0.35216 1.5,0.5 0.485615,0.14784 1.00772,0.2824 1.5,0.40625 0.49228,0.12385 1.03349,0.24418 1.53125,0.34375 0.49776,0.0996 1.060457,0.20621 1.5625,0.28125 0.502043,0.075 1.057381,0.13716 1.5625,0.1875 0.505119,0.0503 1.05552,0.0995 1.5625,0.125 0.50698,0.0255 1.054879,0.0306 1.5625,0.0312 18.97632,0 33.65625,14.67993 33.65625,33.65625 0,18.97622 -14.679932,33.65625 -33.65625,33.65625 -0.517366,-0.0154 -1.076263,-0.0105 -1.59375,0 -0.517487,0.0105 -1.077436,0.0261 -1.59375,0.0625 -0.516314,0.0364 -1.0799,0.0941 -1.59375,0.15625 -0.51385,0.0621 -1.083649,0.13099 -1.59375,0.21875 -0.510101,0.0878 -1.057425,0.19935 -1.5625,0.3125 -0.505075,0.11315 -1.063713,0.26799 -1.5625,0.40625 -0.49879,0.13826 -1.04,0.30573 -1.53125,0.46875 -0.49125,0.16302 -1.01751,0.34387 -1.5,0.53125 -0.48249,0.18738 -1.02748,0.41374 -1.5,0.625 -0.47252,0.21126 -0.97614,0.45288 -1.4375,0.6875 -0.46136,0.23462 -0.95719,0.4926 -1.40625,0.75 -0.44906,0.2574 -0.93937,0.56423 -1.375,0.84375 -0.43563,0.27952 -0.89139,0.6053 -1.3125,0.90625 -0.42111,0.30095 -0.87572,0.64712 -1.28125,0.96875 -0.40553,0.32163 -0.86105,0.6585 -1.25,1 -0.38895,0.3415 -0.78486,0.73323 -1.15625,1.09375 -0.37139,0.36052 -0.7721,0.77761 -1.125,1.15625 -0.3529,0.37864 -0.72897,0.79169 -1.0625,1.1875 -0.33353,0.39581 -0.68668,0.83801 -1,1.25 -0.31332,0.41199 -0.64517,0.88536 -0.9375,1.3125 -0.29233,0.42714 -0.60439,0.90253 -0.875,1.34375 -0.27061,0.44122 -0.56428,0.92081 -0.8125,1.375 -0.24822,0.45419 -0.49355,0.97146 -0.71875,1.4375 -0.2252,0.46604 -0.45463,0.99204 -0.65625,1.46875 -0.20162,0.47671 -0.41622,0.98256 -0.59375,1.46875 -0.17753,0.48619 -0.37825,1.03679 -0.53125,1.53125 -0.153,0.49446 -0.27816,1.02976 -0.40625,1.53125 -0.12809,0.50149 -0.27214,1.05523 -0.375,1.5625 -0.10286,0.50727 -0.20388,1.08197 -0.28125,1.59375 -0.0774,0.51178 -0.13581,1.07874 -0.1875,1.59375 -0.0517,0.51501 -0.0991,1.0768 -0.125,1.59375 -0.0259,0.51695 -0.0312,1.07616 -0.0312,1.59375 0,0.51759 0.005,1.0768 0.0312,1.59375 0.0259,0.51695 0.0733,1.07874 0.125,1.59375 0.0517,0.51501 0.11013,1.08197 0.1875,1.59375 0.0774,0.51178 0.17839,1.08648 0.28125,1.59375 0.10286,0.50727 0.24691,1.06101 0.375,1.5625 0.12809,0.50149 0.25325,1.03679 0.40625,1.53125 0.153,0.49446 0.35372,1.04506 0.53125,1.53125 0.17753,0.48619 0.39213,0.99204 0.59375,1.46875 0.20162,0.47671 0.43105,1.00271 0.65625,1.46875 0.2252,0.46604 0.47053,0.98331 0.71875,1.4375 0.24822,0.45419 0.54189,0.93378 0.8125,1.375 0.27061,0.44122 0.58267,0.91661 0.875,1.34375 0.29233,0.42714 0.62418,0.90051 0.9375,1.3125 0.31332,0.41199 0.66647,0.85419 1,1.25 0.33353,0.39581 0.7096,0.80886 1.0625,1.1875 0.3529,0.37864 0.75361,0.79573 1.125,1.15625 0.37139,0.36052 0.7673,0.75225 1.15625,1.09375 0.38895,0.3415 0.84447,0.67837 1.25,1 0.40553,0.32163 0.86014,0.6678 1.28125,0.96875 0.42111,0.30095 0.87687,0.62673 1.3125,0.90625 0.43563,0.27952 0.92594,0.58635 1.375,0.84375 0.44906,0.2574 0.94489,0.51538 1.40625,0.75 0.46136,0.23462 0.96498,0.47624 1.4375,0.6875 0.47252,0.21126 1.01751,0.43762 1.5,0.625 0.48249,0.18738 1.00875,0.36823 1.5,0.53125 0.49125,0.16302 1.03246,0.33049 1.53125,0.46875 0.498787,0.13826 1.057425,0.2931 1.5625,0.40625 0.505075,0.11315 1.052399,0.22474 1.5625,0.3125 0.510101,0.0878 1.0799,0.15661 1.59375,0.21875 0.51385,0.0621 1.077436,0.11987 1.59375,0.15625 0.516314,0.0364 1.076263,0.052 1.59375,0.0625 0.517487,0.0105 1.076384,0.0154 1.59375,0 53.601332,-10e-5 97.75,-44.11735 97.75,-97.71875 0,-53.6015 -44.148471,-97.7501 -97.75,-97.75 z m -325.625,5.40625 a 0.49905191,0.49905191 0 0 0 -0.40625,0.5 l 0,203.875 c 0,19.10682 15.39265,34.53135 34.5,34.53125 l 22.0625,0 0,69.03125 c 0,17.8297 14.20093,32.0625 32.03125,32.0625 17.83031,0 32.0625,-14.2322 32.0625,-32.0625 l 0,-69.03125 41.03125,0 0,69.03125 c 0,17.8297 14.20093,32.0625 32.03125,32.0625 17.83031,0 32.03125,-14.2328 32.03125,-32.0625 l 0,-69.03125 22.0625,0 c 19.10735,0 34.5,-15.42443 34.5,-34.53125 l 0,-203.875 a 0.49905191,0.49905191 0 0 0 -0.5,-0.5 l -281.3125,0 a 0.49905191,0.49905191 0 0 0 -0.0937,0 z"
       transform="matrix(1.0000592,0,0,0.99997368,248.21261,-967.2031)"
       style="fill:none;stroke:#000000;stroke-width:0.99998361;stroke-miterlimit:4;stroke-opacity:1;stroke-dasharray:none" />
  </g>
</svg>
