<?xml version="1.0" encoding="UTF-8" standalone="no"?>
<svg
   xmlns:dc="http://purl.org/dc/elements/1.1/"
   xmlns:cc="http://creativecommons.org/ns#"
   xmlns:rdf="http://www.w3.org/1999/02/22-rdf-syntax-ns#"
   xmlns:svg="http://www.w3.org/2000/svg"
   xmlns="http://www.w3.org/2000/svg"
   xmlns:xlink="http://www.w3.org/1999/xlink"
   xmlns:sodipodi="http://sodipodi.sourceforge.net/DTD/sodipodi-0.dtd"
   xmlns:inkscape="http://www.inkscape.org/namespaces/inkscape"
   viewBox="-147 -68 636.11684 512.01658"
   id="svg4017"
   version="1.1"
   inkscape:version="0.48.4 r9939"
   width="100%"
   height="100%"
   sodipodi:docname="brewdroid.svg"
   inkscape:export-filename="/home/chshrcat/AndroidStudioProjects/HomebrewersCompanion/brewdroid.png"
   inkscape:export-xdpi="90.002586"
   inkscape:export-ydpi="90.002586"
   style="enable-background:new">
  <metadata
     id="metadata4048">
    <rdf:RDF>
      <cc:Work
         rdf:about="">
        <dc:format>image/svg+xml</dc:format>
        <dc:type
           rdf:resource="http://purl.org/dc/dcmitype/StillImage" />
        <dc:title></dc:title>
      </cc:Work>
    </rdf:RDF>
  </metadata>
  <defs
     id="defs4046">
    <filter
       id="filter5019"
       inkscape:label="Rear Glass"
       inkscape:menu="Bevels"
       inkscape:menu-tooltip="Same as Matte jelly but with more controls"
       color-interpolation-filters="sRGB"
       height="1"
       width="1"
       y="0"
       x="0">
      <feTurbulence
         id="feTurbulence5021"
         type="fractalNoise"
         numOctaves="3"
         baseFrequency="0.0040000000000000001"
         result="result1"
         seed="7"
         surfaceScale="5" />
      <feColorMatrix
         id="feColorMatrix5047"
         values="1 0 0 0 0 0 1 0 0 0 0 0 1 0 0 0 0 0 0.3 0.7 "
         result="result4" />
      <feComposite
         in2="result4"
         id="feComposite5023"
         operator="in"
         result="result2"
         in="SourceGraphic" />
      <feColorMatrix
         id="feColorMatrix5025"
         result="fbSourceGraphic"
         values="1 0 0 0 0 0 1 0 0 0 0 0 1 0 0 0 0 0 3 -1 "
         in="result2" />
      <feColorMatrix
         result="fbSourceGraphicAlpha"
         in="fbSourceGraphic"
         values="0 0 0 -1 0 0 0 0 -1 0 0 0 0 -1 0 0 0 0 1 0"
         id="feColorMatrix5049" />
      <feBlend
         in2="fbSourceGraphicAlpha"
         id="feBlend5051"
         result="result3"
         mode="normal"
         in="fbSourceGraphic" />
      <feComposite
         in2="result3"
         id="feComposite5053"
         result="result4"
         operator="arithmetic"
         k2="1"
         k1="0"
         k3="0"
         k4="0" />
      <feColorMatrix
         id="feColorMatrix5055"
         in="result4"
         result="result0"
         values="1 0 0 0 0 0 1 0 0 0 0 0 1 0 0 0 0 0 0.85 0 " />
      <feGaussianBlur
         id="feGaussianBlur5057"
         stdDeviation="7"
         in="fbSourceGraphicAlpha" />
      <feSpecularLighting
         id="feSpecularLighting5059"
         result="result1"
         specularExponent="2"
         specularConstant="1"
         surfaceScale="-5"
         lighting-color="#bbbbbb"
         seed="7">
        <feDistantLight
           id="feDistantLight5061"
           azimuth="225"
           elevation="60" />
      </feSpecularLighting>
      <feComposite
         in2="result0"
         id="feComposite5063"
         k1="0.5"
         k2="1"
         operator="arithmetic"
         k3="0.5"
         result="result5"
         k4="0" />
      <feComposite
         in2="result0"
         id="feComposite5065"
         result="result2"
         operator="atop" />
      <feComposite
         in2="fbSourceGraphic"
         id="feComposite5067"
         operator="in" />
    </filter>
    <filter
       x="0"
       y="0"
       width="1"
       height="1"
       color-interpolation-filters="sRGB"
       inkscape:menu-tooltip="Same as Matte jelly but with more controls"
       inkscape:menu="Bevels"
       inkscape:label="Front Glass"
       id="filter6678">
      <feTurbulence
         surfaceScale="5"
         seed="5"
         result="result1"
         baseFrequency="0.0040000000000000001"
         numOctaves="3"
         type="fractalNoise"
         id="feTurbulence6680" />
      <feColorMatrix
         result="result4"
         values="1 0 0 0 0 0 1 0 0 0 0 0 1 0 0 0 0 0 0.3 0.7 "
         id="feColorMatrix6682" />
      <feComposite
         in="SourceGraphic"
         result="result2"
         operator="in"
         id="feComposite6684"
         in2="result4" />
      <feColorMatrix
         in="result2"
         values="1 0 0 0 0 0 1 0 0 0 0 0 1 0 0 0 0 0 3 -1 "
         result="fbSourceGraphic"
         id="feColorMatrix6686" />
      <feColorMatrix
         id="feColorMatrix6688"
         values="0 0 0 -1 0 0 0 0 -1 0 0 0 0 -1 0 0 0 0 1 0"
         in="fbSourceGraphic"
         result="fbSourceGraphicAlpha" />
      <feBlend
         in="fbSourceGraphic"
         mode="normal"
         result="result3"
         id="feBlend6690"
         in2="fbSourceGraphicAlpha" />
      <feComposite
         k2="1"
         operator="arithmetic"
         result="result4"
         id="feComposite6692"
         in2="result3"
         k1="0"
         k3="0"
         k4="0" />
      <feColorMatrix
         values="1 0 0 0 0 0 1 0 0 0 0 0 1 0 0 0 0 0 0.85 0 "
         result="result0"
         in="result4"
         id="feColorMatrix6694" />
      <feGaussianBlur
         in="fbSourceGraphicAlpha"
         stdDeviation="7"
         id="feGaussianBlur6696" />
      <feSpecularLighting
         lighting-color="#bbbbbb"
         surfaceScale="5"
         specularConstant="1"
         specularExponent="2"
         result="result1"
         id="feSpecularLighting6698">
        <feDistantLight
           elevation="60"
           azimuth="225"
           id="feDistantLight6700" />
      </feSpecularLighting>
      <feComposite
         result="result5"
         k3="0.5"
         operator="arithmetic"
         k2="1"
         k1="0.5"
         id="feComposite6702"
         in2="result0"
         k4="0" />
      <feComposite
         operator="atop"
         result="result2"
         id="feComposite6704"
         in2="result0" />
      <feComposite
         operator="in"
         id="feComposite6706"
         in2="fbSourceGraphic" />
    </filter>
    <filter
       id="filter6710"
       inkscape:label="Glow"
       color-interpolation-filters="sRGB">
      <feGaussianBlur
         stdDeviation="2"
         id="feGaussianBlur6712"
         result="result1"
         in="SourceAlpha" />
      <feComposite
         id="feComposite6714"
         in2="result1"
         result="result2"
         operator="out"
         in="SourceGraphic" />
      <feComposite
         id="feComposite6716"
         in2="SourceGraphic"
         operator="in" />
    </filter>
    <clipPath
       clipPathUnits="userSpaceOnUse"
       id="clipPath4536">
      <use
         x="0"
         y="0"
         xlink:href="#path5149"
         id="use4538"
         transform="translate(158.1951,-721.22665)"
         width="433"
         height="511.98532" />
    </clipPath>
    <filter
       id="filter4868"
       inkscape:label="filter3"
       color-interpolation-filters="sRGB">
      <feGaussianBlur
         stdDeviation="19.882489539748953"
         id="feGaussianBlur4947"
         in="SourceAlpha"
         result="result1" />
      <feComposite
         id="feComposite4949"
         in2="result1"
         operator="out"
         in="SourceGraphic" />
    </filter>
    <filter
       color-interpolation-filters="sRGB"
       inkscape:label="Glow"
       id="filter4995"
       x="-0.1">
      <feGaussianBlur
         in="SourceAlpha"
         result="result1"
         id="feGaussianBlur4997"
         stdDeviation="6" />
      <feComposite
         in="SourceGraphic"
         operator="out"
         result="result2"
         in2="result1"
         id="feComposite4999" />
      <feComposite
         operator="in"
         in2="SourceGraphic"
         id="feComposite5001" />
    </filter>
  </defs>
  <sodipodi:namedview
     pagecolor="#000000"
     bordercolor="#666666"
     borderopacity="1"
     objecttolerance="10"
     gridtolerance="10"
     guidetolerance="10"
     inkscape:pageopacity="0"
     inkscape:pageshadow="2"
     inkscape:window-width="1920"
     inkscape:window-height="1027"
     id="namedview4044"
     showgrid="false"
     inkscape:zoom="1"
     inkscape:cx="419.10902"
     inkscape:cy="255.20293"
     inkscape:window-x="-2"
     inkscape:window-y="-3"
     inkscape:window-maximized="1"
     inkscape:current-layer="layer1"
     fit-margin-top="0"
     fit-margin-left="0"
     fit-margin-right="0"
     fit-margin-bottom="0" />
  <g
     inkscape:groupmode="layer"
     id="layer3"
     inkscape:label="Base"
     style="display:inline"
     transform="translate(300.12793,419.02626)">
    <path
       inkscape:export-ydpi="137.48117"
       inkscape:export-xdpi="137.48117"
       inkscape:export-filename="/home/chshrcat/Downloads/brewdroid_store.png"
       inkscape:connector-curvature="0"
       id="path5149"
       d="m -363.16369,481.22901 c -0.65534,0.0573 -1.3459,0.27621 -1.98044,0.62794 -2.25616,1.25061 -2.98953,3.83006 -1.73892,6.08622 l 22.21954,40.14004 c -42.7339,22.24743 -71.62462,64.52598 -71.68218,113.02974 l 281.31876,0 c -0.0576,-48.50376 -28.94829,-90.78231 -71.68218,-113.02974 l 22.21954,-40.14004 c 1.25062,-2.25616 0.51724,-4.83561 -1.73892,-6.08622 -0.84606,-0.46898 -1.75489,-0.69478 -2.60838,-0.62794 -1.42248,0.1114 -2.69621,0.95676 -3.47784,2.36686 l -22.50937,40.57478 c -18.42304,-8.17795 -39.05241,-12.75208 -60.86223,-12.75208 -21.80982,0 -42.43919,4.57413 -60.86223,12.75208 l -22.50937,-40.57478 c -0.78163,-1.4101 -2.05536,-2.25547 -3.47784,-2.36686 -0.21337,-0.0167 -0.4095,-0.0191 -0.62794,0 z m 22.55767,84.91721 c 6.42198,0 11.73771,5.31572 11.73771,11.7377 0,6.42198 -5.31573,11.73771 -11.73771,11.73771 -6.42199,0 -11.73772,-5.31573 -11.73772,-11.73771 0,-6.42198 5.31573,-11.7377 11.73772,-11.7377 z m 129.83943,0 c 6.42198,0 11.73771,5.31572 11.73771,11.7377 0,6.42198 -5.31573,11.73771 -11.73771,11.73771 -6.42199,0 -11.73772,-5.31573 -11.73772,-11.73771 0,-6.42198 5.31573,-11.7377 11.73772,-11.7377 z m -248.85891,80.66652 c -17.56522,0 -31.5421,13.97686 -31.5421,31.54206 l 0,131.38498 c 0,17.5652 13.97688,31.54206 31.5421,31.54206 17.56522,0 31.54209,-13.97686 31.54209,-31.54206 l 0,-131.38498 c 0,-17.5652 -13.97687,-31.54206 -31.54209,-31.54206 z m 367.878383,0 c -17.565223,0 -31.542093,13.97686 -31.542093,31.54206 l 0,131.38498 c 0,17.5652 13.97687,31.54206 31.542093,31.54206 17.56522,0 31.5421,-13.97686 31.5421,-31.54206 l 0,-131.38498 c 0,-17.5652 -13.97688,-31.54206 -31.5421,-31.54206 z m -324.598573,5.40997 0,203.88824 c 0,18.83906 15.16648,34.00553 34.00556,34.00553 l 22.55767,0 0,69.55676 c 0,17.5652 13.97688,31.54206 31.5421,31.54206 17.56521,0 31.54209,-13.97686 31.54209,-31.54206 l 0,-69.55676 42.02392,0 0,69.55676 c 0,17.5652 13.97688,31.54206 31.5421,31.54206 17.56521,0 31.54209,-13.97686 31.54209,-31.54206 l 0,-69.55676 22.55767,0 c 18.83908,0 34.00556,-15.16647 34.00556,-34.00553 l 0,-203.88824 -281.31876,0 z"
       inkscape:label="#base"
       inkscape:transform-center-x="22.627417"
       inkscape:transform-center-y="31.112698" />
    <use
       x="0"
       y="0"
       xlink:href="#path5149"
       id="use3875"
       transform="translate(248.1951,-967.22665)"
       width="433"
       height="511.98532"
       style="fill:#e8f5f8;fill-opacity:0.50196078;filter:url(#filter5019)"
       inkscape:export-filename="/home/chshrcat/AndroidStudioProjects/HomebrewersCompanion/brewdroid.png"
       inkscape:export-xdpi="90.002586"
       inkscape:export-ydpi="90.002586" />
    <path
       style="fill:#800000;fill-opacity:0.8627451"
       d="m 134,-26.343749 c -2.41848,-0.041 -3.9188,-0.12662 -6.5,-0.15625 -11.34306,-0.13022 -24.14276,-0.16023 -37.21875,-0.15625 -26.15199,0.008 -53.47517,0.15739 -72.78125,-0.125 -9.6530398,-0.14119 -17.94628984,-0.0121 -25.4687498,0.3125 -7.5224602,0.32459 -14.2498502,0.8239 -20.7500002,1.40625 -6.500149,0.58235 -12.788899,1.24289 -19.374999,1.875 -6.5861,0.63211 -13.46968,1.24489 -21.25,1.71875 -7.78032,0.47386 -15.64143,0.63974 -23.593751,0.5625 -7.95232,-0.0772 -15.99865,-0.38559 -24.15625,-0.90625 -8.1576,-0.52066 -16.44758,-1.23735 -24.84375,-2.09375 -8.39616,-0.8564 -16.89448,-1.85305 -25.5625,-2.9375 -8.66801,-1.08445 -17.8022,-1.92678 -27.15625,-2.5 -9.35405,-0.57322 -18.95082,-0.88356 -28.5625,-0.90625 -9.61168,-0.0227 -19.2466,0.24538 -28.6875,0.8125 -4.72045,0.28356 -9.37132,0.62412 -13.96875,1.0625 -4.59743,0.43839 -9.14164,0.96438 -13.5625,1.5625 -8.84171,1.19624 -17.47127,2.12592 -26,2.8125 -8.52873,0.68659 -16.94754,1.11418 -25.3125,1.375 -8.36496,0.26082 -16.68084,0.33105 -25.03125,0.25 -5.37037,-0.0521 -10.80369,-0.24123 -16.21875,-0.40625 L -372,285 l 506,0 0,-311.343749 z"
       id="path4516"
       inkscape:connector-curvature="0"
       clip-path="url(#clipPath4536)"
       transform="translate(90,-246.00001)"
       inkscape:export-filename="/home/chshrcat/AndroidStudioProjects/HomebrewersCompanion/brewdroid.png"
       inkscape:export-xdpi="90.002586"
       inkscape:export-ydpi="90.002586" />
    <use
       x="0"
       y="0"
       xlink:href="#path5149"
       id="use4428"
       transform="translate(248.1951,-967.22665)"
       width="433"
       height="511.98532"
       style="fill:none;fill-opacity:0.50196078000000000;filter:url(#filter6678)"
       inkscape:export-filename="/home/chshrcat/AndroidStudioProjects/HomebrewersCompanion/brewdroid.png"
       inkscape:export-xdpi="90.002586"
       inkscape:export-ydpi="90.002586" />
    <use
       x="0"
       y="0"
       xlink:href="#path5149"
       inkscape:transform-center-x="22.627417"
       inkscape:transform-center-y="31.112698"
       id="use3828"
       transform="translate(248.1951,-967.22665)"
       width="636.11682"
       height="512.0166"
       style="filter:url(#filter6678);fill:#e8f5f8;fill-opacity:0.50196081" />
    <use
       x="0"
       y="0"
       xlink:href="#path5149"
       id="use4430"
       transform="translate(248.1951,-967.22665)"
       width="433"
       height="511.98532"
       style="fill:#e8f5f8;fill-opacity:1;filter:url(#filter6710)"
       clip-path="none"
       mask="none"
       inkscape:export-filename="/home/chshrcat/AndroidStudioProjects/HomebrewersCompanion/brewdroid.png"
       inkscape:export-xdpi="90.002586"
       inkscape:export-ydpi="90.002586" />
    <use
       style="fill:#e8f5f8;fill-opacity:0.50196078;filter:url(#filter5019)"
       height="511.98532"
       width="433"
       transform="matrix(0.27058851,0,0,0.27058839,-311.0682,-416.22271)"
       id="use4979"
       xlink:href="#path5149"
       y="0"
       x="0" />
    <path
       transform="matrix(0.27058851,0,0,0.27058839,-353.87397,-221.06715)"
       clip-path="url(#clipPath4536)"
       inkscape:connector-curvature="0"
       id="path4981"
       d="m 134,-26.343749 c -2.41848,-0.041 -3.9188,-0.12662 -6.5,-0.15625 -11.34306,-0.13022 -24.14276,-0.16023 -37.21875,-0.15625 -26.15199,0.008 -53.47517,0.15739 -72.78125,-0.125 -9.6530398,-0.14119 -17.94628984,-0.0121 -25.4687498,0.3125 -7.5224602,0.32459 -14.2498502,0.8239 -20.7500002,1.40625 -6.500149,0.58235 -12.788899,1.24289 -19.374999,1.875 -6.5861,0.63211 -13.46968,1.24489 -21.25,1.71875 -7.78032,0.47386 -15.64143,0.63974 -23.593751,0.5625 -7.95232,-0.0772 -15.99865,-0.38559 -24.15625,-0.90625 -8.1576,-0.52066 -16.44758,-1.23735 -24.84375,-2.09375 -8.39616,-0.8564 -16.89448,-1.85305 -25.5625,-2.9375 -8.66801,-1.08445 -17.8022,-1.92678 -27.15625,-2.5 -9.35405,-0.57322 -18.95082,-0.88356 -28.5625,-0.90625 -9.61168,-0.0227 -19.2466,0.24538 -28.6875,0.8125 -4.72045,0.28356 -9.37132,0.62412 -13.96875,1.0625 -4.59743,0.43839 -9.14164,0.96438 -13.5625,1.5625 -8.84171,1.19624 -17.47127,2.12592 -26,2.8125 -8.52873,0.68659 -16.94754,1.11418 -25.3125,1.375 -8.36496,0.26082 -16.68084,0.33105 -25.03125,0.25 -5.37037,-0.0521 -10.80369,-0.24123 -16.21875,-0.40625 L -372,285 l 506,0 0,-311.343749 z"
       style="fill:#800000;fill-opacity:0.8627451" />
    <use
       style="fill:#e8f5f8;fill-opacity:0.50196078;filter:url(#filter6678)"
       height="511.98532"
       width="433"
       transform="matrix(0.27058851,0,0,0.27058839,-311.0682,-416.22271)"
       id="use4983"
       xlink:href="#path5149"
       y="0"
       x="0" />
    <use
       mask="none"
       clip-path="none"
       style="fill:#e8f5f8;fill-opacity:1;filter:url(#filter4995)"
       height="511.98532"
       width="433"
       transform="matrix(0.27058851,0,0,0.27058839,-311.0682,-416.22271)"
       id="use4985"
       xlink:href="#path5149"
       y="0"
       x="0"
       inkscape:export-xdpi="22.497959"
       inkscape:export-ydpi="22.497959" />
    <path
       sodipodi:type="inkscape:offset"
       inkscape:radius="0.49900201"
       inkscape:original="M -363.15625 481.21875 C -363.81159 481.27605 -364.52171 481.49202 -365.15625 481.84375 C -367.41241 483.09436 -368.12561 485.68134 -366.875 487.9375 L -344.65625 528.09375 C -387.39015 550.34118 -416.28619 592.62124 -416.34375 641.125 L -135.03125 641.125 C -135.08885 592.62124 -163.98486 550.34118 -206.71875 528.09375 L -184.5 487.9375 C -183.24938 485.68134 -183.96259 483.09436 -186.21875 481.84375 C -187.06481 481.37477 -187.99026 481.15191 -188.84375 481.21875 C -190.26623 481.33015 -191.53087 482.18365 -192.3125 483.59375 L -214.8125 524.15625 C -233.23554 515.9783 -253.87768 511.40625 -275.6875 511.40625 C -297.49732 511.40625 -318.13946 515.9783 -336.5625 524.15625 L -359.0625 483.59375 C -359.84413 482.18365 -361.10877 481.33014 -362.53125 481.21875 C -362.74462 481.20205 -362.93781 481.19965 -363.15625 481.21875 z M -340.59375 566.15625 C -334.17177 566.15625 -328.875 571.45302 -328.875 577.875 C -328.875 584.29698 -334.17177 589.625 -340.59375 589.625 C -347.01574 589.625 -352.34375 584.29698 -352.34375 577.875 C -352.34375 571.45302 -347.01574 566.15625 -340.59375 566.15625 z M -210.78125 566.15625 C -204.35927 566.15625 -199.03125 571.45302 -199.03125 577.875 C -199.03125 584.29698 -204.35927 589.625 -210.78125 589.625 C -217.20324 589.625 -222.5 584.29698 -222.5 577.875 C -222.5 571.45302 -217.20324 566.15625 -210.78125 566.15625 z M -459.625 646.8125 C -477.19022 646.8125 -491.15625 660.77855 -491.15625 678.34375 L -491.15625 809.75 C -491.15625 827.3152 -477.19022 841.28125 -459.625 841.28125 C -442.05978 841.28125 -428.09375 827.3152 -428.09375 809.75 L -428.09375 678.34375 C -428.09375 660.77855 -442.05978 646.8125 -459.625 646.8125 z M -91.75 646.8125 C -109.31522 646.8125 -123.28125 660.77855 -123.28125 678.34375 L -123.28125 809.75 C -123.28125 827.3152 -109.31522 841.28125 -91.75 841.28125 C -74.18478 841.28125 -60.21875 827.3152 -60.21875 809.75 L -60.21875 678.34375 C -60.21875 660.77855 -74.18478 646.8125 -91.75 646.8125 z M -416.34375 652.21875 L -416.34375 856.125 C -416.34375 874.96406 -401.18283 890.125 -382.34375 890.125 L -359.78125 890.125 L -359.78125 959.6875 C -359.78125 977.2527 -345.81522 991.21875 -328.25 991.21875 C -310.68479 991.21875 -296.6875 977.2527 -296.6875 959.6875 L -296.6875 890.125 L -254.6875 890.125 L -254.6875 959.6875 C -254.6875 977.2527 -240.69022 991.21875 -223.125 991.21875 C -205.55979 991.21875 -191.59375 977.2527 -191.59375 959.6875 L -191.59375 890.125 L -169.03125 890.125 C -150.19217 890.125 -135.03125 874.96406 -135.03125 856.125 L -135.03125 652.21875 L -416.34375 652.21875 z "
       xlink:href="#path5149"
       id="path3818"
       inkscape:href="#path5149"
       d="m -363.1875,480.71875 c -0.73257,0.0641 -1.5219,0.30123 -2.21875,0.6875 -2.47237,1.37046 -3.27427,4.31327 -1.90625,6.78125 l 21.96875,39.71875 c -42.62227,22.38966 -71.44242,64.69631 -71.5,113.21875 a 0.49905191,0.49905191 0 0 0 0.5,0.5 l 281.3125,0 a 0.49905191,0.49905191 0 0 0 0.5,-0.5 c -0.0576,-48.52244 -28.87774,-90.82909 -71.5,-113.21875 l 21.96875,-39.71875 c 1.36804,-2.46798 0.56612,-5.41079 -1.90625,-6.78125 -0.92238,-0.51129 -1.9387,-0.76327 -2.90625,-0.6875 -1.59731,0.12509 -3.02412,1.08996 -3.875,2.625 l -22.28125,40.1875 c -18.38571,-8.09596 -38.93311,-12.625 -60.65625,-12.625 -21.72314,0 -42.27054,4.52904 -60.65625,12.625 l -22.28125,-40.1875 c -0.85088,-1.53504 -2.27768,-2.49992 -3.875,-2.625 -0.23302,-0.0182 -0.44001,-0.0216 -0.6875,0 z m 22.59375,85.9375 c 6.1476,0 11.21875,5.07115 11.21875,11.21875 0,6.1476 -5.07277,11.25 -11.21875,11.25 -6.14599,0 -11.25,-5.10402 -11.25,-11.25 0,-6.14598 5.10239,-11.21875 11.25,-11.21875 z m 129.8125,0 c 6.1476,0 11.25,5.07277 11.25,11.21875 0,6.14598 -5.10402,11.25 -11.25,11.25 -6.14599,0 -11.21875,-5.1024 -11.21875,-11.25 0,-6.1476 5.07114,-11.21875 11.21875,-11.21875 z M -459.625,646.3125 c -17.82972,0 -32.03125,14.20155 -32.03125,32.03125 l 0,131.40625 c 0,17.8297 14.20153,32.03125 32.03125,32.03125 17.82972,0 32.03125,-14.20155 32.03125,-32.03125 l 0,-131.40625 c 0,-17.8297 -14.20153,-32.03125 -32.03125,-32.03125 z m 367.875,0 c -17.82972,0 -32.03125,14.20155 -32.03125,32.03125 l 0,131.40625 c 0,17.8297 14.20153,32.03125 32.03125,32.03125 17.829723,0 32.03125,-14.20155 32.03125,-32.03125 l 0,-131.40625 c 0,-17.8297 -14.201527,-32.03125 -32.03125,-32.03125 z m -324.6875,5.40625 a 0.49905191,0.49905191 0 0 0 -0.40625,0.5 l 0,203.90625 c 0,19.10678 15.3932,34.5 34.5,34.5 l 22.0625,0 0,69.0625 c 0,17.8297 14.20153,32.03125 32.03125,32.03125 17.82971,0 32.0625,-14.20095 32.0625,-32.03125 l 0,-69.0625 41,0 0,69.0625 c 0,17.8303 14.23278,32.03125 32.0625,32.03125 17.82971,0 32.03125,-14.20155 32.03125,-32.03125 l 0,-69.0625 22.0625,0 c 19.1068,0 34.5,-15.39322 34.5,-34.5 l 0,-203.90625 a 0.49905191,0.49905191 0 0 0 -0.5,-0.5 l -281.3125,0 a 0.49905191,0.49905191 0 0 0 -0.0937,0 z"
       transform="matrix(1.0000592,0,0,0.99997368,248.21261,-967.2031)"
       style="fill:none;fill-opacity:0.76371303999999995;stroke:#000000;stroke-width:0.99998361000000002;stroke-miterlimit:4;stroke-opacity:1;stroke-dasharray:none"
       inkscape:export-filename="/home/chshrcat/AndroidStudioProjects/BrewDroid/brewdroid.png"
       inkscape:export-xdpi="90.002586"
       inkscape:export-ydpi="90.002586" />
    <path
       sodipodi:type="inkscape:offset"
       inkscape:radius="5.5419807"
       inkscape:original="M -363.15625 481.21875 C -363.81159 481.27605 -364.52171 481.49202 -365.15625 481.84375 C -367.41241 483.09436 -368.12561 485.68134 -366.875 487.9375 L -344.65625 528.09375 C -387.39015 550.34118 -416.28619 592.62124 -416.34375 641.125 L -135.03125 641.125 C -135.08885 592.62124 -163.98486 550.34118 -206.71875 528.09375 L -184.5 487.9375 C -183.24938 485.68134 -183.96259 483.09436 -186.21875 481.84375 C -187.06481 481.37477 -187.99026 481.15191 -188.84375 481.21875 C -190.26623 481.33015 -191.53087 482.18365 -192.3125 483.59375 L -214.8125 524.15625 C -233.23554 515.9783 -253.87768 511.40625 -275.6875 511.40625 C -297.49732 511.40625 -318.13946 515.9783 -336.5625 524.15625 L -359.0625 483.59375 C -359.84413 482.18365 -361.10877 481.33014 -362.53125 481.21875 C -362.74462 481.20205 -362.93781 481.19965 -363.15625 481.21875 z M -340.59375 566.15625 C -334.17177 566.15625 -328.875 571.45302 -328.875 577.875 C -328.875 584.29698 -334.17177 589.625 -340.59375 589.625 C -347.01574 589.625 -352.34375 584.29698 -352.34375 577.875 C -352.34375 571.45302 -347.01574 566.15625 -340.59375 566.15625 z M -210.78125 566.15625 C -204.35927 566.15625 -199.03125 571.45302 -199.03125 577.875 C -199.03125 584.29698 -204.35927 589.625 -210.78125 589.625 C -217.20324 589.625 -222.5 584.29698 -222.5 577.875 C -222.5 571.45302 -217.20324 566.15625 -210.78125 566.15625 z M -459.625 646.8125 C -477.19022 646.8125 -491.15625 660.77855 -491.15625 678.34375 L -491.15625 809.75 C -491.15625 827.3152 -477.19022 841.28125 -459.625 841.28125 C -442.05978 841.28125 -428.09375 827.3152 -428.09375 809.75 L -428.09375 678.34375 C -428.09375 660.77855 -442.05978 646.8125 -459.625 646.8125 z M -91.75 646.8125 C -109.31522 646.8125 -123.28125 660.77855 -123.28125 678.34375 L -123.28125 809.75 C -123.28125 827.3152 -109.31522 841.28125 -91.75 841.28125 C -74.18478 841.28125 -60.21875 827.3152 -60.21875 809.75 L -60.21875 678.34375 C -60.21875 660.77855 -74.18478 646.8125 -91.75 646.8125 z M -416.34375 652.21875 L -416.34375 856.125 C -416.34375 874.96406 -401.18283 890.125 -382.34375 890.125 L -359.78125 890.125 L -359.78125 959.6875 C -359.78125 977.2527 -345.81522 991.21875 -328.25 991.21875 C -310.68479 991.21875 -296.6875 977.2527 -296.6875 959.6875 L -296.6875 890.125 L -254.6875 890.125 L -254.6875 959.6875 C -254.6875 977.2527 -240.69022 991.21875 -223.125 991.21875 C -205.55979 991.21875 -191.59375 977.2527 -191.59375 959.6875 L -191.59375 890.125 L -169.03125 890.125 C -150.19217 890.125 -135.03125 874.96406 -135.03125 856.125 L -135.03125 652.21875 L -416.34375 652.21875 z "
       xlink:href="#path5149"
       id="path3048"
       inkscape:href="#path5149"
       d="m -363.625,475.6875 c -1.51303,0.13229 -2.89214,0.57715 -4.21875,1.3125 -4.65738,2.58163 -6.42963,9.01633 -3.875,13.625 l 19.5625,35.34375 c -41.6418,23.74124 -69.66086,66.37671 -69.71875,115.15625 a 5.5425349,5.5425349 0 0 0 5.53125,5.53125 l 281.3125,0 A 5.5425349,5.5425349 0 0 0 -129.5,641.125 c -0.0579,-48.77954 -28.07696,-91.41501 -69.71875,-115.15625 l 19.5625,-35.34375 c 2.55465,-4.60868 0.78238,-11.04337 -3.875,-13.625 -1.69371,-0.93884 -3.62971,-1.47855 -5.75,-1.3125 -3.36418,0.26346 -6.32423,2.42108 -7.875,5.21875 l -20.15625,36.375 c -17.91897,-7.24569 -37.60774,-11.40625 -58.375,-11.40625 -20.76726,0 -40.45603,4.16056 -58.375,11.40625 l -20.15625,-36.375 c -1.55076,-2.79766 -4.51077,-4.95531 -7.875,-5.21875 -0.43163,-0.0338 -0.99021,-0.0473 -1.53125,0 z m 23.03125,96 c 3.37468,0 6.1875,2.81282 6.1875,6.1875 0,3.37468 -2.8308,6.21875 -6.1875,6.21875 -3.35671,0 -6.21875,-2.86205 -6.21875,-6.21875 0,-3.3567 2.84406,-6.1875 6.21875,-6.1875 z m 129.8125,0 c 3.37468,0 6.21875,2.8308 6.21875,6.1875 0,3.3567 -2.86205,6.21875 -6.21875,6.21875 -3.35671,0 -6.1875,-2.84407 -6.1875,-6.21875 0,-3.37468 2.81281,-6.1875 6.1875,-6.1875 z M -459.625,641.28125 c -20.50283,0 -37.0625,16.55969 -37.0625,37.0625 l 0,131.40625 c 0,20.50281 16.55967,37.0625 37.0625,37.0625 20.50283,0 37.0625,-16.55969 37.0625,-37.0625 l 0,-131.40625 c 0,-20.50281 -16.55967,-37.0625 -37.0625,-37.0625 z m 367.875,0 c -20.50283,0 -37.0625,16.55969 -37.0625,37.0625 l 0,131.40625 c 0,20.50281 16.55967,37.0625 37.0625,37.0625 20.502827,0 37.0625,-16.55969 37.0625,-37.0625 l 0,-131.40625 c 0,-20.50281 -16.559673,-37.0625 -37.0625,-37.0625 z m -324.59375,5.40625 a 5.5425349,5.5425349 0 0 0 -5.53125,5.53125 l 0,203.90625 c 0,21.81237 17.71886,39.53125 39.53125,39.53125 l 17.03125,0 0,64.03125 c 0,20.50281 16.55967,37.0625 37.0625,37.0625 20.50282,0 37.09375,-16.55312 37.09375,-37.0625 l 0,-64.03125 30.9375,0 0,64.03125 c 0,20.50938 16.59092,37.0625 37.09375,37.0625 20.50282,0 37.0625,-16.55969 37.0625,-37.0625 l 0,-64.03125 17.03125,0 c 21.81239,0 39.53125,-17.71888 39.53125,-39.53125 l 0,-203.90625 a 5.5425349,5.5425349 0 0 0 -5.53125,-5.53125 l -281.3125,0 z"
       transform="matrix(0.27060537,0,0,0.27058111,-311.06323,-416.21411)"
       style="fill:none;fill-opacity:0.35021099000000000;stroke:#000000;stroke-width:11.08675193999999919;stroke-linejoin:miter;stroke-miterlimit:4;stroke-opacity:1;stroke-dasharray:none"
       inkscape:export-xdpi="22.500448"
       inkscape:export-ydpi="22.500448"
       inkscape:export-filename="/home/chshrcat/AndroidStudioProjects/BrewDroid/brewdroid/src/main/res/drawable-ldpi/ic_launcher.png" />
  </g>
  <g
     inkscape:groupmode="layer"
     id="layer1"
     inkscape:label="Bounds"
     style="display:none">
    <rect
       transform="translate(300.12793,419.02626)"
       style="fill:#000000;fill-opacity:1;stroke:none;display:inline;enable-background:new"
       id="rect3944"
       width="512"
       height="512"
       x="-283.49121"
       y="-487.0112"
       inkscape:export-filename="/home/chshrcat/AndroidStudioProjects/BrewDroid/brewdroid.png"
       inkscape:export-xdpi="90.002586"
       inkscape:export-ydpi="90.002586" />
    <rect
       style="fill:#000000;fill-opacity:1;stroke:none"
       id="rect3954"
       width="144"
       height="144"
       x="-157.53781"
       y="130.01489"
       inkscape:export-filename="/home/chshrcat/AndroidStudioProjects/BrewDroid/brewdroid/src/main/res/drawable-ldpi/ic_launcher.png"
       inkscape:export-xdpi="22.5"
       inkscape:export-ydpi="22.5" />
  </g>
</svg>
